PathFileType	4	(X/Y/Z)	C:/Users/opensim2020/Desktop/walking_exp_matlab/subject01_walking15_straight_02.trc	
DataRate	CameraRate	NumFrames	NumMarkers	Units	OrigDataRate	OrigDataStartFrame	OrigNumFrames	
100.00	100.00	7	43	mm	100.00	1161	135	
Frame#	Time	LFHD			RFHD			LBHD			RBHD			C7			T10			CLAV			STRN			RBAK			LSHO			LUPA			LELB			LFRM			LWRA			LWRB			LFIN			RSHO			RUPA			RELB			RFRM			RWRA			RWRB			RFIN			LASI			RASI			LPSI			RPSI			LTHI			LKNE			LTIB			LANK			LHEE			LTOE			RTHI			RKNE			RTIB			RANK			RHEE			RTOE			*39			*40			*41			*42			
		X1	Y1	Z1	X2	Y2	Z2	X3	Y3	Z3	X4	Y4	Z4	X5	Y5	Z5	X6	Y6	Z6	X7	Y7	Z7	X8	Y8	Z8	X9	Y9	Z9	X10	Y10	Z10	X11	Y11	Z11	X12	Y12	Z12	X13	Y13	Z13	X14	Y14	Z14	X15	Y15	Z15	X16	Y16	Z16	X17	Y17	Z17	X18	Y18	Z18	X19	Y19	Z19	X20	Y20	Z20	X21	Y21	Z21	X22	Y22	Z22	X23	Y23	Z23	X24	Y24	Z24	X25	Y25	Z25	X26	Y26	Z26	X27	Y27	Z27	X28	Y28	Z28	X29	Y29	Z29	X30	Y30	Z30	X31	Y31	Z31	X32	Y32	Z32	X33	Y33	Z33	X34	Y34	Z34	X35	Y35	Z35	X36	Y36	Z36	X37	Y37	Z37	X38	Y38	Z38	X39	Y39	Z39	X40	Y40	Z40	X41	Y41	Z41	X42	Y42	Z42	X43	Y43	Z43	

17	0.160	-990.31439	746.43884	1662.43030	-1097.39771	707.50079	1674.57495	-1028.07422	854.00946	1613.98462	-1142.32263	816.43817	1625.76855	-1060.09973	877.80420	1431.87109	-1079.66626	935.04449	1141.75806	-1071.96399	734.57623	1359.12488	-1078.31091	703.25281	1200.90625	-1141.74646	948.96033	1249.76172	-907.44128	785.28882	1388.96741	-823.68323	802.85931	1204.81775	-824.59644	800.32129	1049.23389	-817.68610	711.28815	970.40533	-849.69110	584.98236	921.39294	-831.23395	626.78986	882.91071	-827.00543	548.95557	851.11377	-1216.25281	805.52289	1405.00232	-1314.77795	914.12219	1228.86780	-1325.46606	936.40649	1106.81238	-1364.69104	942.72437	989.25067	-1359.12878	895.17633	853.27704	-1394.18079	939.45361	868.74219	-1399.06543	926.85773	780.52747	-980.70093	766.71448	928.43835	-1197.84900	764.78546	936.58795	-1037.84009	951.19922	947.87213	-1182.71265	946.09973	946.21930	-953.51123	861.62732	595.39624	-981.60663	902.05066	466.13773	-994.30902	990.88403	296.29620	-1070.78259	1048.17456	89.63189	-1129.43372	1091.53979	70.61992	-1055.78906	908.16711	37.92067	-1276.21521	710.98004	625.14551	-1257.22009	654.68396	476.41959	-1276.81750	706.14374	307.59735	-1244.68091	724.50562	97.05184	-1192.36328	768.57092	55.29468	-1257.11548	588.74310	55.36922	-1076.18994	726.00763	1706.29956	-3101.99976	1973.19800	1023.54663	-3140.78271	2012.51233	1022.14783			 
18	0.170	-991.77515	734.07117	1661.76074	-1098.98169	695.17603	1673.77466	-1029.47839	841.59662	1613.11621	-1143.84265	804.11249	1624.86414	-1061.51099	865.11670	1430.79871	-1081.04004	921.75256	1140.52844	-1073.05225	721.66846	1358.23853	-1079.12061	690.15656	1200.13855	-1143.00940	935.69812	1248.34949	-908.67072	772.71063	1388.31995	-824.81915	789.28302	1204.32910	-824.85376	784.03943	1048.77869	-817.94995	692.62579	972.65033	-850.01953	564.95282	927.61072	-831.50421	605.50818	887.99707	-826.95264	526.68756	858.78656	-1217.52759	792.55847	1403.81995	-1316.01172	900.89227	1227.44678	-1326.36865	923.58276	1105.88867	-1365.55737	932.08392	988.75476	-1359.81750	887.50781	851.70288	-1395.30371	931.15424	868.13708	-1399.16602	921.06476	779.16376	-980.93115	754.19666	927.22766	-1198.45947	750.38470	935.53241	-1039.59351	938.09552	947.28558	-1184.24329	931.93396	945.20630	-953.25928	854.17102	595.57660	-981.18268	896.30664	466.69135	-993.89813	987.40283	298.12216	-1069.97668	1047.34338	91.79781	-1128.35754	1090.96912	73.80785	-1055.94006	908.09570	37.99605	-1275.17993	699.21289	622.62775	-1255.52380	642.33923	474.89307	-1276.74170	682.22455	303.86963	-1244.75671	684.93781	91.63264	-1193.64331	727.61151	47.39110	-1253.17566	546.27130	59.09221	-1077.74976	713.69458	1705.48645	-3101.97314	1973.11572	1023.62646	-3140.73022	2012.45630	1021.98712			 
19	0.180	-993.40515	721.66901	1660.95984	-1100.57361	682.83087	1672.91675	-1031.03235	829.17065	1612.17737	-1145.36438	791.75818	1623.85352	-1063.08606	852.31262	1429.68616	-1082.51392	908.49329	1139.31189	-1074.24817	708.65930	1357.46130	-1079.94556	676.94324	1199.26636	-1144.37854	922.36597	1246.89380	-909.95258	760.14941	1387.69299	-825.90680	775.13641	1203.64856	-824.82977	767.93671	1048.56299	-818.21710	674.16144	974.91687	-850.31952	545.43811	933.68097	-832.06750	584.62592	892.75641	-826.87762	505.08011	866.19830	-1218.84473	779.46497	1402.54578	-1317.10620	887.82349	1226.07971	-1327.35120	910.71692	1104.89575	-1366.57007	921.11279	988.19037	-1360.53979	879.34601	850.04462	-1396.49194	922.52557	867.66003	-1399.70337	914.64032	778.18878	-981.17023	741.61713	926.09167	-1198.72534	735.74951	934.31073	-1041.40820	924.85095	946.63336	-1185.97278	917.56396	944.47845	-952.99524	846.22607	595.78229	-980.68695	889.92328	467.23889	-993.10486	983.38727	300.03464	-1068.89026	1046.41382	94.37304	-1127.04749	1090.33240	77.22237	-1055.66284	908.12091	37.80289	-1273.95996	688.60968	619.44293	-1254.04797	630.27747	473.05679	-1276.13428	659.03760	300.64053	-1244.53772	647.53210	88.31071	-1194.19861	688.14587	41.44878	-1248.46912	506.03952	64.22230	-1079.68970	701.24335	1704.83691	-3101.96460	1973.12598	1023.58777	-3140.74561	2012.49487	1022.00208			 
20	0.190	-995.08014	709.37250	1660.13757	-1102.28784	670.52997	1672.03101	-1032.61951	816.65741	1611.06348	-1146.86487	779.35309	1622.68823	-1064.73547	839.47455	1428.46716	-1084.06348	895.05707	1137.98584	-1075.48328	695.66003	1356.64038	-1080.86877	663.59430	1198.40222	-1145.84253	908.91168	1245.30432	-911.45898	747.41333	1387.05493	-827.09460	761.28491	1203.14990	-825.50708	751.31573	1048.04199	-818.60504	655.94159	977.14862	-850.58795	526.30975	939.48309	-832.37561	564.32800	897.45221	-826.68951	484.09799	873.52094	-1220.42871	766.23743	1401.27710	-1318.26196	874.76447	1224.77283	-1328.42627	897.78345	1103.89734	-1367.64661	909.89142	987.60272	-1361.32678	870.74896	848.41455	-1397.73816	913.16718	867.10931	-1400.22083	907.69855	777.31390	-981.22974	728.81683	924.91394	-1198.98975	720.87811	933.10052	-1043.28906	911.40851	945.82526	-1187.75647	902.85608	943.70416	-952.85022	837.55109	595.89746	-980.17157	882.74078	467.72592	-992.67444	978.11664	301.68826	-1067.70581	1045.29724	96.94759	-1125.58618	1089.64490	80.96476	-1055.54614	907.93280	37.74320	-1273.46191	678.89105	615.92218	-1252.51257	617.85138	471.08261	-1275.42578	636.69037	298.27856	-1243.05322	611.97015	86.40338	-1193.77014	650.76868	37.28321	-1243.33154	468.92838	70.81689	-1080.91162	689.17761	1703.62549	-3101.84570	1973.21313	1023.44659	-3140.74390	2012.50671	1021.96167			 
21	0.200	-996.74072	696.87097	1659.33423	-1104.22424	658.23615	1671.11060	-1034.26184	804.19177	1609.81360	-1148.63391	766.98761	1621.50464	-1066.50049	826.63672	1427.16589	-1085.63867	881.19061	1136.44470	-1076.80579	682.53784	1355.70813	-1081.81982	650.16638	1197.57520	-1147.45239	895.31030	1243.61890	-913.07489	734.68597	1386.44446	-828.36688	747.21960	1202.80078	-825.66644	735.33148	1048.05322	-818.95563	638.01489	979.35785	-850.89813	507.73352	945.00916	-832.41937	544.60809	902.00238	-826.41132	463.67438	880.32892	-1221.97717	752.88300	1399.97021	-1319.46814	861.67932	1223.53735	-1329.63721	884.86005	1102.82104	-1369.01428	898.63013	987.08661	-1362.24927	861.55908	847.07654	-1399.02795	903.49152	866.54547	-1400.77319	900.02710	776.13837	-981.41656	715.58148	923.62146	-1198.95801	705.85339	931.88605	-1045.25513	897.80365	944.89929	-1189.69299	887.75677	942.87854	-952.58582	828.10461	596.00916	-979.71387	874.57312	468.01559	-991.86432	972.69568	303.41013	-1066.51123	1043.83203	99.66068	-1124.09717	1088.62488	84.87350	-1055.47559	907.74298	37.83335	-1274.00049	669.72028	612.13068	-1250.88269	605.00616	469.49561	-1273.64197	615.22162	296.40393	-1241.06433	579.61530	85.97593	-1192.45874	616.70184	35.02633	-1238.24133	435.49454	77.78393	-1082.89600	676.87604	1702.81189	-3101.89819	1973.06873	1023.47327	-3140.82056	2012.47400	1022.09460			 
22	0.210	-998.78064	684.49402	1658.27405	-1106.27063	645.94781	1670.22900	-1036.20874	791.61145	1608.61438	-1150.50085	754.59027	1620.22766	-1068.46436	813.72070	1425.83936	-1087.38196	867.93243	1135.18982	-1078.16638	669.29510	1354.80103	-1082.77637	636.66516	1196.65686	-1149.13525	881.59607	1241.91821	-914.79889	721.93121	1385.92004	-829.67462	733.06934	1202.47546	-826.46008	719.21997	1047.69141	-819.27271	620.55371	981.60205	-851.15063	489.61304	950.12744	-832.40125	525.43506	906.39050	-826.32300	444.08774	886.76355	-1223.61267	739.36383	1398.53833	-1320.75757	848.46234	1222.24329	-1331.05847	871.80420	1101.73535	-1370.43811	886.60907	986.29395	-1362.97229	852.21667	845.80579	-1400.50208	893.38812	866.00574	-1401.52368	891.70953	775.08533	-981.43927	702.45288	922.62805	-1199.02600	690.69574	930.73657	-1047.31140	884.06976	943.89929	-1191.73914	872.75928	942.08282	-952.36310	817.80945	595.90588	-979.29871	865.63910	468.24503	-991.32367	966.57501	305.09644	-1065.22449	1041.97937	102.80707	-1122.45374	1087.48071	89.46429	-1055.19519	907.60034	37.73922	-1275.65967	660.79688	608.46649	-1249.48413	591.92798	468.14322	-1272.03003	594.82037	295.15710	-1238.34802	550.80371	86.27612	-1190.15369	585.39587	33.16709	-1233.18787	406.31821	83.69822	-1085.10852	664.51874	1701.95435	-3102.04419	1973.13696	1023.58734	-3140.83398	2012.43701	1022.16028			 
23	0.220	-1000.80475	672.08728	1657.35266	-1108.36572	633.57446	1669.24451	-1038.10571	779.10974	1607.30432	-1152.47253	742.09576	1618.90771	-1070.51660	800.75964	1424.49109	-1089.12781	854.25659	1133.80164	-1079.67773	656.06421	1353.81531	-1083.72131	623.08954	1195.76355	-1150.99573	867.81525	1240.21631	-916.59656	709.04498	1385.32312	-831.19226	719.08704	1202.21838	-826.76849	703.72650	1047.96912	-819.59259	603.52344	983.67188	-851.24847	472.02609	954.89868	-832.53418	506.86307	910.41681	-826.36975	425.11279	892.44739	-1225.43958	725.68488	1396.98572	-1322.00500	835.05005	1220.72302	-1332.56836	858.60944	1100.51941	-1372.09412	874.53992	985.38269	-1364.38403	842.11908	844.30475	-1402.26624	882.41510	865.12262	-1402.43188	882.71399	773.82526	-981.47516	689.20282	921.65491	-1198.82166	675.31165	929.23871	-1049.41260	870.07550	942.70563	-1193.85266	857.57355	941.01971	-952.28015	806.54742	595.52283	-978.94238	855.60669	468.19681	-990.73352	959.44452	307.00400	-1063.91980	1039.99060	106.25446	-1120.79346	1085.92236	94.27951	-1055.03821	907.42944	37.75055	-1277.26697	650.94781	605.37317	-1248.22290	578.78668	466.74869	-1269.79004	576.03754	293.93307	-1234.76733	525.69812	86.22328	-1186.22717	558.98383	32.61342	-1228.57214	380.79300	88.49409	-1087.25488	652.32959	1700.96997	-3101.93164	1973.16003	1023.54108	-3140.79858	2012.50610	1022.11798			 
